<svg width="76" height="98" viewBox="0 0 76 98" fill="none" xmlns="http://www.w3.org/2000/svg">
<mask id="path-1-outside-1_301_1621" maskUnits="userSpaceOnUse" x="0.753906" y="0.832825" width="75" height="97" fill="black">
<rect fill="white" x="0.753906" y="0.832825" width="75" height="97"/>
<path d="M74.1077 30.3775C74.0366 30.249 73.9407 30.136 73.8256 30.0449C73.7104 29.9538 73.5783 29.8866 73.4369 29.8471C70.2445 28.9541 66.4971 29.5021 63.1556 31.3508C61.1479 32.4428 59.4152 33.9777 58.0891 35.8391L58.0625 35.7192C57.0481 31.142 57.0481 29.4128 58.0625 24.8357L58.8228 21.4046C58.8587 21.2428 58.8577 21.0749 58.8201 20.9135C58.7824 20.752 58.709 20.6011 58.6052 20.4718C58.5015 20.3425 58.37 20.2382 58.2205 20.1665C58.071 20.0948 57.9074 20.0576 57.7416 20.0576H43.9603C43.7945 20.0576 43.6309 20.0948 43.4814 20.1665C43.3319 20.2382 43.2004 20.3425 43.0967 20.4718C42.9929 20.6011 42.9195 20.752 42.8818 20.9135C42.8442 21.0749 42.8432 21.2428 42.8791 21.4046L43.6394 24.8357C44.6536 29.4128 44.6536 31.142 43.6394 35.7192L42.8791 39.1502C42.8751 39.1681 42.8734 39.1862 42.8703 39.2043C42.8668 39.2249 42.8625 39.2454 42.8602 39.2662C42.8579 39.2871 42.8575 39.3075 42.8563 39.3281C42.8552 39.3488 42.8533 39.3692 42.8533 39.3899C42.8533 39.4105 42.8552 39.431 42.8563 39.4516C42.8575 39.4721 42.8579 39.4928 42.8602 39.5135C42.8625 39.5341 42.8668 39.5548 42.8703 39.5754C42.8734 39.5934 42.8752 39.6115 42.8791 39.6296L43.6394 43.0606C44.6538 47.6377 44.6538 49.3668 43.6394 53.944L43.0714 56.5071H33.19L32.622 53.944C31.6075 49.3668 31.6075 47.6377 32.622 43.0606L33.3823 39.6296C33.3862 39.6116 33.388 39.5935 33.391 39.5754C33.3946 39.5548 33.3988 39.5343 33.4012 39.5135C33.4035 39.4927 33.4039 39.4722 33.405 39.4516C33.4062 39.4309 33.4081 39.4105 33.4081 39.3899C33.4081 39.3692 33.4062 39.3487 33.405 39.3281C33.4039 39.3075 33.4035 39.2869 33.4012 39.2662C33.3988 39.2456 33.3946 39.2249 33.391 39.2043C33.388 39.1863 33.3861 39.1682 33.3823 39.1502L32.622 35.7192C31.6076 31.142 31.6076 29.4128 32.622 24.8357L33.3823 21.4046C33.3862 21.3867 33.388 21.3686 33.391 21.3505C33.3946 21.3299 33.3988 21.3094 33.4012 21.2886C33.4035 21.2678 33.4039 21.2473 33.405 21.2267C33.4062 21.206 33.4081 21.1856 33.4081 21.165C33.4081 21.1443 33.4062 21.1238 33.405 21.1032C33.4039 21.0827 33.4035 21.062 33.4012 21.0413C33.3988 21.0207 33.3946 21 33.391 20.9794C33.388 20.9614 33.3861 20.9433 33.3823 20.9253L32.622 17.4943C31.6075 12.9171 31.6075 11.188 32.622 6.61086L33.3823 3.17984C33.4181 3.01799 33.4172 2.85015 33.3795 2.6887C33.3419 2.52725 33.2685 2.37631 33.1647 2.24703C33.0609 2.11775 32.9294 2.01341 32.78 1.94172C32.6305 1.87003 32.4668 1.83282 32.301 1.83282H18.5198C18.354 1.83282 18.1903 1.87004 18.0408 1.94173C17.8914 2.01342 17.7599 2.11776 17.6561 2.24704C17.5524 2.37632 17.4789 2.52726 17.4413 2.6887C17.4036 2.85015 17.4027 3.01799 17.4386 3.17984L18.1988 6.61086C19.2132 11.188 19.2132 12.9171 18.1988 17.4943L18.1564 17.6859C16.8089 15.6569 14.9851 13.9887 12.8443 12.827C9.50294 10.9784 5.7554 10.4306 2.56305 11.3235C2.42165 11.363 2.28953 11.4303 2.17437 11.5213C2.05921 11.6124 1.96331 11.7255 1.89225 11.8539C1.82119 11.9824 1.77639 12.1237 1.76045 12.2697C1.74451 12.4156 1.75776 12.5633 1.79942 12.7041C2.7397 15.883 5.19534 18.766 8.5367 20.6143C10.7148 21.8451 13.1682 22.5065 15.6698 22.5371C16.3341 22.5359 16.9972 22.4798 17.6523 22.3695L18.1988 24.8356C19.2131 29.4127 19.2131 31.142 18.1988 35.7191L17.4385 39.1501C17.4345 39.1681 17.4328 39.1862 17.4297 39.2043C17.4262 39.2249 17.4219 39.2454 17.4196 39.2662C17.4173 39.287 17.4169 39.3074 17.4157 39.3281C17.4146 39.3487 17.4127 39.3691 17.4127 39.3898C17.4127 39.4105 17.4146 39.431 17.4157 39.4515C17.4169 39.4721 17.4173 39.4928 17.4196 39.5134C17.4219 39.5341 17.4262 39.5547 17.4297 39.5754C17.4328 39.5934 17.4346 39.6115 17.4385 39.6295L18.1988 43.0605C19.2132 47.6376 19.2132 49.3668 18.1988 53.9439L17.5155 57.0275C11.7634 61.0867 8.60303 66.4612 8.60303 72.2156C8.60303 78.2212 12.0277 83.7931 18.246 87.9047C18.6857 88.1899 19.004 88.6283 19.139 89.1348C19.274 89.6413 19.2161 90.1798 18.9767 90.6461L16.9476 94.5489C16.8599 94.7177 16.8171 94.9063 16.8234 95.0964C16.8297 95.2866 16.8849 95.4719 16.9836 95.6345C17.0823 95.7971 17.2213 95.9315 17.3871 96.0248C17.5529 96.1181 17.74 96.1672 17.9302 96.1672H58.512C58.7023 96.1672 58.8893 96.1181 59.0551 96.0248C59.2209 95.9315 59.3599 95.7971 59.4586 95.6345C59.5574 95.4719 59.6126 95.2866 59.6189 95.0964C59.6252 94.9063 59.5824 94.7177 59.4946 94.5489L57.4657 90.6461C57.2262 90.1799 57.1684 89.6413 57.3034 89.1348C57.4384 88.6283 57.7566 88.1899 58.1964 87.9047C64.4147 83.7929 67.8392 78.221 67.8392 72.2154C67.8392 66.3904 64.5999 60.9552 58.713 56.8791L58.0625 53.9437C57.048 49.3666 57.048 47.6374 58.0625 43.0603L58.5358 40.9246C59.1298 41.0144 59.7296 41.0599 60.3304 41.0608C62.8319 41.0299 65.2852 40.3686 67.4632 39.138C70.8047 37.2896 73.2604 34.4064 74.2007 31.2276C74.2423 31.0868 74.2555 30.9392 74.2395 30.7932C74.2235 30.6473 74.1787 30.506 74.1077 30.3775ZM45.8019 24.3564L45.3402 22.2724H56.362L55.9002 24.3564C54.821 29.226 54.821 31.3287 55.9002 36.1984L56.362 38.2824H45.34L45.8018 36.1984C46.8809 31.3287 46.881 29.226 45.8019 24.3564ZM45.8019 42.5812L45.3402 40.4972H56.362L55.9002 42.5812C54.821 47.4506 54.821 49.5535 55.9002 54.423L56.362 56.507H45.34L45.8018 54.423C46.8809 49.5535 46.881 47.4506 45.8019 42.5812ZM20.3614 42.5812L19.8996 40.4972H30.9214L30.4597 42.5812C29.3805 47.4506 29.3805 49.5535 30.4597 54.423L30.9214 56.507H19.8995L20.3613 54.423C21.4404 49.5535 21.4405 47.4506 20.3614 42.5812ZM20.3614 24.3564L19.8996 22.2724H30.9214L30.4597 24.3564C29.3805 29.226 29.3805 31.3287 30.4597 36.1984L30.9214 38.2824H19.8995L20.3613 36.1984C21.4404 31.3287 21.4405 29.226 20.3614 24.3564ZM20.3614 6.13176L19.8996 4.04777H30.9214L30.4597 6.13176C29.3805 11.0012 29.3805 13.1041 30.4597 17.9736L30.9214 20.0576H19.8995L20.3613 17.9736C21.4404 13.1041 21.4405 11.0012 20.3614 6.13176ZM9.60896 18.6762C7.18685 17.3365 5.32201 15.3865 4.34502 13.2107C6.70683 12.8809 9.35005 13.4253 11.7723 14.7651C14.1944 16.1047 16.0593 18.0549 17.0362 20.2308C14.6737 20.5597 12.0309 20.016 9.60896 18.6762ZM65.6244 72.2155C65.6244 77.4532 62.5525 82.3689 56.9748 86.0572C56.0776 86.6436 55.4301 87.5421 55.1577 88.5787C54.8854 89.6153 55.0075 90.7162 55.5005 91.6678L56.6882 93.9524H19.7542L20.9419 91.6678C21.4349 90.7162 21.5571 89.6154 21.2847 88.5788C21.0123 87.5422 20.3648 86.6436 19.4676 86.0573C13.8898 82.369 10.8179 77.4533 10.8179 72.2156C10.8179 67.1505 13.7045 62.3694 18.9555 58.7219H57.4868C62.7378 62.3694 65.6244 67.1504 65.6244 72.2155ZM66.3911 37.2C63.9689 38.5397 61.3262 39.084 58.9639 38.7544C59.9407 36.5785 61.8056 34.6285 64.2278 33.2887C66.6501 31.9489 69.2926 31.4048 71.6551 31.7343C70.6782 33.9101 68.8133 35.8601 66.3911 37.2Z"/>
</mask>
<path d="M74.1077 30.3775C74.0366 30.249 73.9407 30.136 73.8256 30.0449C73.7104 29.9538 73.5783 29.8866 73.4369 29.8471C70.2445 28.9541 66.4971 29.5021 63.1556 31.3508C61.1479 32.4428 59.4152 33.9777 58.0891 35.8391L58.0625 35.7192C57.0481 31.142 57.0481 29.4128 58.0625 24.8357L58.8228 21.4046C58.8587 21.2428 58.8577 21.0749 58.8201 20.9135C58.7824 20.752 58.709 20.6011 58.6052 20.4718C58.5015 20.3425 58.37 20.2382 58.2205 20.1665C58.071 20.0948 57.9074 20.0576 57.7416 20.0576H43.9603C43.7945 20.0576 43.6309 20.0948 43.4814 20.1665C43.3319 20.2382 43.2004 20.3425 43.0967 20.4718C42.9929 20.6011 42.9195 20.752 42.8818 20.9135C42.8442 21.0749 42.8432 21.2428 42.8791 21.4046L43.6394 24.8357C44.6536 29.4128 44.6536 31.142 43.6394 35.7192L42.8791 39.1502C42.8751 39.1681 42.8734 39.1862 42.8703 39.2043C42.8668 39.2249 42.8625 39.2454 42.8602 39.2662C42.8579 39.2871 42.8575 39.3075 42.8563 39.3281C42.8552 39.3488 42.8533 39.3692 42.8533 39.3899C42.8533 39.4105 42.8552 39.431 42.8563 39.4516C42.8575 39.4721 42.8579 39.4928 42.8602 39.5135C42.8625 39.5341 42.8668 39.5548 42.8703 39.5754C42.8734 39.5934 42.8752 39.6115 42.8791 39.6296L43.6394 43.0606C44.6538 47.6377 44.6538 49.3668 43.6394 53.944L43.0714 56.5071H33.19L32.622 53.944C31.6075 49.3668 31.6075 47.6377 32.622 43.0606L33.3823 39.6296C33.3862 39.6116 33.388 39.5935 33.391 39.5754C33.3946 39.5548 33.3988 39.5343 33.4012 39.5135C33.4035 39.4927 33.4039 39.4722 33.405 39.4516C33.4062 39.4309 33.4081 39.4105 33.4081 39.3899C33.4081 39.3692 33.4062 39.3487 33.405 39.3281C33.4039 39.3075 33.4035 39.2869 33.4012 39.2662C33.3988 39.2456 33.3946 39.2249 33.391 39.2043C33.388 39.1863 33.3861 39.1682 33.3823 39.1502L32.622 35.7192C31.6076 31.142 31.6076 29.4128 32.622 24.8357L33.3823 21.4046C33.3862 21.3867 33.388 21.3686 33.391 21.3505C33.3946 21.3299 33.3988 21.3094 33.4012 21.2886C33.4035 21.2678 33.4039 21.2473 33.405 21.2267C33.4062 21.206 33.4081 21.1856 33.4081 21.165C33.4081 21.1443 33.4062 21.1238 33.405 21.1032C33.4039 21.0827 33.4035 21.062 33.4012 21.0413C33.3988 21.0207 33.3946 21 33.391 20.9794C33.388 20.9614 33.3861 20.9433 33.3823 20.9253L32.622 17.4943C31.6075 12.9171 31.6075 11.188 32.622 6.61086L33.3823 3.17984C33.4181 3.01799 33.4172 2.85015 33.3795 2.6887C33.3419 2.52725 33.2685 2.37631 33.1647 2.24703C33.0609 2.11775 32.9294 2.01341 32.78 1.94172C32.6305 1.87003 32.4668 1.83282 32.301 1.83282H18.5198C18.354 1.83282 18.1903 1.87004 18.0408 1.94173C17.8914 2.01342 17.7599 2.11776 17.6561 2.24704C17.5524 2.37632 17.4789 2.52726 17.4413 2.6887C17.4036 2.85015 17.4027 3.01799 17.4386 3.17984L18.1988 6.61086C19.2132 11.188 19.2132 12.9171 18.1988 17.4943L18.1564 17.6859C16.8089 15.6569 14.9851 13.9887 12.8443 12.827C9.50294 10.9784 5.7554 10.4306 2.56305 11.3235C2.42165 11.363 2.28953 11.4303 2.17437 11.5213C2.05921 11.6124 1.96331 11.7255 1.89225 11.8539C1.82119 11.9824 1.77639 12.1237 1.76045 12.2697C1.74451 12.4156 1.75776 12.5633 1.79942 12.7041C2.7397 15.883 5.19534 18.766 8.5367 20.6143C10.7148 21.8451 13.1682 22.5065 15.6698 22.5371C16.3341 22.5359 16.9972 22.4798 17.6523 22.3695L18.1988 24.8356C19.2131 29.4127 19.2131 31.142 18.1988 35.7191L17.4385 39.1501C17.4345 39.1681 17.4328 39.1862 17.4297 39.2043C17.4262 39.2249 17.4219 39.2454 17.4196 39.2662C17.4173 39.287 17.4169 39.3074 17.4157 39.3281C17.4146 39.3487 17.4127 39.3691 17.4127 39.3898C17.4127 39.4105 17.4146 39.431 17.4157 39.4515C17.4169 39.4721 17.4173 39.4928 17.4196 39.5134C17.4219 39.5341 17.4262 39.5547 17.4297 39.5754C17.4328 39.5934 17.4346 39.6115 17.4385 39.6295L18.1988 43.0605C19.2132 47.6376 19.2132 49.3668 18.1988 53.9439L17.5155 57.0275C11.7634 61.0867 8.60303 66.4612 8.60303 72.2156C8.60303 78.2212 12.0277 83.7931 18.246 87.9047C18.6857 88.1899 19.004 88.6283 19.139 89.1348C19.274 89.6413 19.2161 90.1798 18.9767 90.6461L16.9476 94.5489C16.8599 94.7177 16.8171 94.9063 16.8234 95.0964C16.8297 95.2866 16.8849 95.4719 16.9836 95.6345C17.0823 95.7971 17.2213 95.9315 17.3871 96.0248C17.5529 96.1181 17.74 96.1672 17.9302 96.1672H58.512C58.7023 96.1672 58.8893 96.1181 59.0551 96.0248C59.2209 95.9315 59.3599 95.7971 59.4586 95.6345C59.5574 95.4719 59.6126 95.2866 59.6189 95.0964C59.6252 94.9063 59.5824 94.7177 59.4946 94.5489L57.4657 90.6461C57.2262 90.1799 57.1684 89.6413 57.3034 89.1348C57.4384 88.6283 57.7566 88.1899 58.1964 87.9047C64.4147 83.7929 67.8392 78.221 67.8392 72.2154C67.8392 66.3904 64.5999 60.9552 58.713 56.8791L58.0625 53.9437C57.048 49.3666 57.048 47.6374 58.0625 43.0603L58.5358 40.9246C59.1298 41.0144 59.7296 41.0599 60.3304 41.0608C62.8319 41.0299 65.2852 40.3686 67.4632 39.138C70.8047 37.2896 73.2604 34.4064 74.2007 31.2276C74.2423 31.0868 74.2555 30.9392 74.2395 30.7932C74.2235 30.6473 74.1787 30.506 74.1077 30.3775ZM45.8019 24.3564L45.3402 22.2724H56.362L55.9002 24.3564C54.821 29.226 54.821 31.3287 55.9002 36.1984L56.362 38.2824H45.34L45.8018 36.1984C46.8809 31.3287 46.881 29.226 45.8019 24.3564ZM45.8019 42.5812L45.3402 40.4972H56.362L55.9002 42.5812C54.821 47.4506 54.821 49.5535 55.9002 54.423L56.362 56.507H45.34L45.8018 54.423C46.8809 49.5535 46.881 47.4506 45.8019 42.5812ZM20.3614 42.5812L19.8996 40.4972H30.9214L30.4597 42.5812C29.3805 47.4506 29.3805 49.5535 30.4597 54.423L30.9214 56.507H19.8995L20.3613 54.423C21.4404 49.5535 21.4405 47.4506 20.3614 42.5812ZM20.3614 24.3564L19.8996 22.2724H30.9214L30.4597 24.3564C29.3805 29.226 29.3805 31.3287 30.4597 36.1984L30.9214 38.2824H19.8995L20.3613 36.1984C21.4404 31.3287 21.4405 29.226 20.3614 24.3564ZM20.3614 6.13176L19.8996 4.04777H30.9214L30.4597 6.13176C29.3805 11.0012 29.3805 13.1041 30.4597 17.9736L30.9214 20.0576H19.8995L20.3613 17.9736C21.4404 13.1041 21.4405 11.0012 20.3614 6.13176ZM9.60896 18.6762C7.18685 17.3365 5.32201 15.3865 4.34502 13.2107C6.70683 12.8809 9.35005 13.4253 11.7723 14.7651C14.1944 16.1047 16.0593 18.0549 17.0362 20.2308C14.6737 20.5597 12.0309 20.016 9.60896 18.6762ZM65.6244 72.2155C65.6244 77.4532 62.5525 82.3689 56.9748 86.0572C56.0776 86.6436 55.4301 87.5421 55.1577 88.5787C54.8854 89.6153 55.0075 90.7162 55.5005 91.6678L56.6882 93.9524H19.7542L20.9419 91.6678C21.4349 90.7162 21.5571 89.6154 21.2847 88.5788C21.0123 87.5422 20.3648 86.6436 19.4676 86.0573C13.8898 82.369 10.8179 77.4533 10.8179 72.2156C10.8179 67.1505 13.7045 62.3694 18.9555 58.7219H57.4868C62.7378 62.3694 65.6244 67.1504 65.6244 72.2155ZM66.3911 37.2C63.9689 38.5397 61.3262 39.084 58.9639 38.7544C59.9407 36.5785 61.8056 34.6285 64.2278 33.2887C66.6501 31.9489 69.2926 31.4048 71.6551 31.7343C70.6782 33.9101 68.8133 35.8601 66.3911 37.2Z" fill="#285A43"/>
<path d="M74.1077 30.3775C74.0366 30.249 73.9407 30.136 73.8256 30.0449C73.7104 29.9538 73.5783 29.8866 73.4369 29.8471C70.2445 28.9541 66.4971 29.5021 63.1556 31.3508C61.1479 32.4428 59.4152 33.9777 58.0891 35.8391L58.0625 35.7192C57.0481 31.142 57.0481 29.4128 58.0625 24.8357L58.8228 21.4046C58.8587 21.2428 58.8577 21.0749 58.8201 20.9135C58.7824 20.752 58.709 20.6011 58.6052 20.4718C58.5015 20.3425 58.37 20.2382 58.2205 20.1665C58.071 20.0948 57.9074 20.0576 57.7416 20.0576H43.9603C43.7945 20.0576 43.6309 20.0948 43.4814 20.1665C43.3319 20.2382 43.2004 20.3425 43.0967 20.4718C42.9929 20.6011 42.9195 20.752 42.8818 20.9135C42.8442 21.0749 42.8432 21.2428 42.8791 21.4046L43.6394 24.8357C44.6536 29.4128 44.6536 31.142 43.6394 35.7192L42.8791 39.1502C42.8751 39.1681 42.8734 39.1862 42.8703 39.2043C42.8668 39.2249 42.8625 39.2454 42.8602 39.2662C42.8579 39.2871 42.8575 39.3075 42.8563 39.3281C42.8552 39.3488 42.8533 39.3692 42.8533 39.3899C42.8533 39.4105 42.8552 39.431 42.8563 39.4516C42.8575 39.4721 42.8579 39.4928 42.8602 39.5135C42.8625 39.5341 42.8668 39.5548 42.8703 39.5754C42.8734 39.5934 42.8752 39.6115 42.8791 39.6296L43.6394 43.0606C44.6538 47.6377 44.6538 49.3668 43.6394 53.944L43.0714 56.5071H33.19L32.622 53.944C31.6075 49.3668 31.6075 47.6377 32.622 43.0606L33.3823 39.6296C33.3862 39.6116 33.388 39.5935 33.391 39.5754C33.3946 39.5548 33.3988 39.5343 33.4012 39.5135C33.4035 39.4927 33.4039 39.4722 33.405 39.4516C33.4062 39.4309 33.4081 39.4105 33.4081 39.3899C33.4081 39.3692 33.4062 39.3487 33.405 39.3281C33.4039 39.3075 33.4035 39.2869 33.4012 39.2662C33.3988 39.2456 33.3946 39.2249 33.391 39.2043C33.388 39.1863 33.3861 39.1682 33.3823 39.1502L32.622 35.7192C31.6076 31.142 31.6076 29.4128 32.622 24.8357L33.3823 21.4046C33.3862 21.3867 33.388 21.3686 33.391 21.3505C33.3946 21.3299 33.3988 21.3094 33.4012 21.2886C33.4035 21.2678 33.4039 21.2473 33.405 21.2267C33.4062 21.206 33.4081 21.1856 33.4081 21.165C33.4081 21.1443 33.4062 21.1238 33.405 21.1032C33.4039 21.0827 33.4035 21.062 33.4012 21.0413C33.3988 21.0207 33.3946 21 33.391 20.9794C33.388 20.9614 33.3861 20.9433 33.3823 20.9253L32.622 17.4943C31.6075 12.9171 31.6075 11.188 32.622 6.61086L33.3823 3.17984C33.4181 3.01799 33.4172 2.85015 33.3795 2.6887C33.3419 2.52725 33.2685 2.37631 33.1647 2.24703C33.0609 2.11775 32.9294 2.01341 32.78 1.94172C32.6305 1.87003 32.4668 1.83282 32.301 1.83282H18.5198C18.354 1.83282 18.1903 1.87004 18.0408 1.94173C17.8914 2.01342 17.7599 2.11776 17.6561 2.24704C17.5524 2.37632 17.4789 2.52726 17.4413 2.6887C17.4036 2.85015 17.4027 3.01799 17.4386 3.17984L18.1988 6.61086C19.2132 11.188 19.2132 12.9171 18.1988 17.4943L18.1564 17.6859C16.8089 15.6569 14.9851 13.9887 12.8443 12.827C9.50294 10.9784 5.7554 10.4306 2.56305 11.3235C2.42165 11.363 2.28953 11.4303 2.17437 11.5213C2.05921 11.6124 1.96331 11.7255 1.89225 11.8539C1.82119 11.9824 1.77639 12.1237 1.76045 12.2697C1.74451 12.4156 1.75776 12.5633 1.79942 12.7041C2.7397 15.883 5.19534 18.766 8.5367 20.6143C10.7148 21.8451 13.1682 22.5065 15.6698 22.5371C16.3341 22.5359 16.9972 22.4798 17.6523 22.3695L18.1988 24.8356C19.2131 29.4127 19.2131 31.142 18.1988 35.7191L17.4385 39.1501C17.4345 39.1681 17.4328 39.1862 17.4297 39.2043C17.4262 39.2249 17.4219 39.2454 17.4196 39.2662C17.4173 39.287 17.4169 39.3074 17.4157 39.3281C17.4146 39.3487 17.4127 39.3691 17.4127 39.3898C17.4127 39.4105 17.4146 39.431 17.4157 39.4515C17.4169 39.4721 17.4173 39.4928 17.4196 39.5134C17.4219 39.5341 17.4262 39.5547 17.4297 39.5754C17.4328 39.5934 17.4346 39.6115 17.4385 39.6295L18.1988 43.0605C19.2132 47.6376 19.2132 49.3668 18.1988 53.9439L17.5155 57.0275C11.7634 61.0867 8.60303 66.4612 8.60303 72.2156C8.60303 78.2212 12.0277 83.7931 18.246 87.9047C18.6857 88.1899 19.004 88.6283 19.139 89.1348C19.274 89.6413 19.2161 90.1798 18.9767 90.6461L16.9476 94.5489C16.8599 94.7177 16.8171 94.9063 16.8234 95.0964C16.8297 95.2866 16.8849 95.4719 16.9836 95.6345C17.0823 95.7971 17.2213 95.9315 17.3871 96.0248C17.5529 96.1181 17.74 96.1672 17.9302 96.1672H58.512C58.7023 96.1672 58.8893 96.1181 59.0551 96.0248C59.2209 95.9315 59.3599 95.7971 59.4586 95.6345C59.5574 95.4719 59.6126 95.2866 59.6189 95.0964C59.6252 94.9063 59.5824 94.7177 59.4946 94.5489L57.4657 90.6461C57.2262 90.1799 57.1684 89.6413 57.3034 89.1348C57.4384 88.6283 57.7566 88.1899 58.1964 87.9047C64.4147 83.7929 67.8392 78.221 67.8392 72.2154C67.8392 66.3904 64.5999 60.9552 58.713 56.8791L58.0625 53.9437C57.048 49.3666 57.048 47.6374 58.0625 43.0603L58.5358 40.9246C59.1298 41.0144 59.7296 41.0599 60.3304 41.0608C62.8319 41.0299 65.2852 40.3686 67.4632 39.138C70.8047 37.2896 73.2604 34.4064 74.2007 31.2276C74.2423 31.0868 74.2555 30.9392 74.2395 30.7932C74.2235 30.6473 74.1787 30.506 74.1077 30.3775ZM45.8019 24.3564L45.3402 22.2724H56.362L55.9002 24.3564C54.821 29.226 54.821 31.3287 55.9002 36.1984L56.362 38.2824H45.34L45.8018 36.1984C46.8809 31.3287 46.881 29.226 45.8019 24.3564ZM45.8019 42.5812L45.3402 40.4972H56.362L55.9002 42.5812C54.821 47.4506 54.821 49.5535 55.9002 54.423L56.362 56.507H45.34L45.8018 54.423C46.8809 49.5535 46.881 47.4506 45.8019 42.5812ZM20.3614 42.5812L19.8996 40.4972H30.9214L30.4597 42.5812C29.3805 47.4506 29.3805 49.5535 30.4597 54.423L30.9214 56.507H19.8995L20.3613 54.423C21.4404 49.5535 21.4405 47.4506 20.3614 42.5812ZM20.3614 24.3564L19.8996 22.2724H30.9214L30.4597 24.3564C29.3805 29.226 29.3805 31.3287 30.4597 36.1984L30.9214 38.2824H19.8995L20.3613 36.1984C21.4404 31.3287 21.4405 29.226 20.3614 24.3564ZM20.3614 6.13176L19.8996 4.04777H30.9214L30.4597 6.13176C29.3805 11.0012 29.3805 13.1041 30.4597 17.9736L30.9214 20.0576H19.8995L20.3613 17.9736C21.4404 13.1041 21.4405 11.0012 20.3614 6.13176ZM9.60896 18.6762C7.18685 17.3365 5.32201 15.3865 4.34502 13.2107C6.70683 12.8809 9.35005 13.4253 11.7723 14.7651C14.1944 16.1047 16.0593 18.0549 17.0362 20.2308C14.6737 20.5597 12.0309 20.016 9.60896 18.6762ZM65.6244 72.2155C65.6244 77.4532 62.5525 82.3689 56.9748 86.0572C56.0776 86.6436 55.4301 87.5421 55.1577 88.5787C54.8854 89.6153 55.0075 90.7162 55.5005 91.6678L56.6882 93.9524H19.7542L20.9419 91.6678C21.4349 90.7162 21.5571 89.6154 21.2847 88.5788C21.0123 87.5422 20.3648 86.6436 19.4676 86.0573C13.8898 82.369 10.8179 77.4533 10.8179 72.2156C10.8179 67.1505 13.7045 62.3694 18.9555 58.7219H57.4868C62.7378 62.3694 65.6244 67.1504 65.6244 72.2155ZM66.3911 37.2C63.9689 38.5397 61.3262 39.084 58.9639 38.7544C59.9407 36.5785 61.8056 34.6285 64.2278 33.2887C66.6501 31.9489 69.2926 31.4048 71.6551 31.7343C70.6782 33.9101 68.8133 35.8601 66.3911 37.2Z" stroke="#285A43" stroke-width="2" mask="url(#path-1-outside-1_301_1621)"/>
<path d="M51.4608 87.0032H24.9817C24.5554 87.0032 24.1465 87.1726 23.8451 87.474C23.5436 87.7755 23.3743 88.1843 23.3743 88.6107C23.3743 89.037 23.5436 89.4458 23.8451 89.7473C24.1465 90.0487 24.5554 90.2181 24.9817 90.2181H51.4608C51.8871 90.2181 52.296 90.0487 52.5974 89.7473C52.8989 89.4458 53.0682 89.037 53.0682 88.6107C53.0682 88.1843 52.8989 87.7755 52.5974 87.474C52.296 87.1726 51.8871 87.0032 51.4608 87.0032Z" fill="#285A43" stroke="#285A43"/>
</svg>
