<svg width="64" height="98" viewBox="0 0 64 98" fill="none" xmlns="http://www.w3.org/2000/svg">
<path d="M18.1675 12.9343L18.521 12.5808C18.6703 12.73 18.7887 12.9072 18.8695 13.1023C18.9502 13.2973 18.9918 13.5063 18.9918 13.7174C18.9918 13.9285 18.9502 14.1376 18.8695 14.3326C18.7887 14.5276 18.6703 14.7048 18.521 14.8541C18.3717 15.0033 18.1945 15.1217 17.9995 15.2025C17.8045 15.2833 17.5954 15.3249 17.3843 15.3249C17.1732 15.3249 16.9642 15.2833 16.7692 15.2025C16.5742 15.1217 16.397 15.0033 16.2477 14.8541L16.2477 14.8541M18.1675 12.9343L16.6012 14.5005L16.2477 14.8541M18.1675 12.9343L18.521 12.5808L16.0069 10.0667L16.0069 10.0667M18.1675 12.9343L16.0069 10.0667M16.2477 14.8541L13.7336 12.34M16.2477 14.8541L13.7336 12.34M13.7336 12.34C13.7336 12.34 13.7336 12.34 13.7336 12.34M13.7336 12.34L13.7336 12.34M16.0069 10.0667C15.7055 9.76524 15.2966 9.59588 14.8703 9.59589C14.4439 9.59589 14.0351 9.76525 13.7336 10.0667L14.0872 10.4203M16.0069 10.0667L14.0872 10.4203M14.0872 10.4203L13.7336 10.0667C13.4322 10.3682 13.2628 10.777 13.2628 11.2034M14.0872 10.4203L13.2628 11.2034M13.2628 11.2034C13.2628 11.6297 13.4322 12.0386 13.7336 12.34M13.2628 11.2034L13.7336 12.34" fill="#285A43" stroke="#285A43"/>
<path d="M44.9349 12.5809L44.9349 12.5809L46.0715 14.8248L46.0709 15.3248C46.071 15.3248 46.0712 15.3248 46.0714 15.3248C46.2826 15.325 46.4917 15.2835 46.6868 15.2027C46.8819 15.1219 47.0591 15.0033 47.2083 14.8539C47.2083 14.8539 47.2083 14.8538 47.2084 14.8538C47.2085 14.8537 47.2086 14.8536 47.2087 14.8535L49.7205 12.3412C49.871 12.1927 49.9907 12.0159 50.0728 11.821C50.1552 11.6255 50.1981 11.4156 50.1989 11.2034C50.1998 10.9912 50.1586 10.781 50.0778 10.5847C49.997 10.3885 49.8781 10.2103 49.728 10.0603C49.578 9.91023 49.3997 9.7914 49.2035 9.71061C49.0073 9.62982 48.797 9.58867 48.5849 9.58955C48.3727 9.59043 48.1627 9.63331 47.9672 9.71573C47.7724 9.79785 47.5956 9.91761 47.4472 10.0681L44.9349 12.5809Z" fill="#285A43" stroke="#285A43"/>
<path d="M52.0128 29.6683H57.323C57.7494 29.6683 58.1582 29.499 58.4597 29.1975C58.7611 28.8961 58.9305 28.4872 58.9305 28.0609C58.9305 27.6346 58.7611 27.2257 58.4597 26.9243L58.1061 27.2778L58.4597 26.9243C58.1582 26.6228 57.7494 26.4535 57.323 26.4535H52.0128C51.5865 26.4535 51.1776 26.6228 50.8762 26.9243C50.5747 27.2257 50.4054 27.6346 50.4054 28.0609C50.4054 28.4872 50.5747 28.8961 50.8762 29.1975C51.1776 29.499 51.5865 29.6683 52.0128 29.6683Z" fill="#285A43" stroke="#285A43"/>
<path d="M6.13277 29.6683H11.443C11.8693 29.6683 12.2782 29.499 12.5796 29.1975C12.8811 28.8961 13.0504 28.4872 13.0504 28.0609C13.0504 27.6346 12.8811 27.2257 12.5796 26.9243L12.2261 27.2778L12.5796 26.9243C12.2782 26.6228 11.8693 26.4535 11.443 26.4535H6.13277C5.70645 26.4535 5.2976 26.6228 4.99615 26.9243C4.6947 27.2257 4.52534 27.6346 4.52534 28.0609C4.52534 28.4872 4.6947 28.8961 4.99615 29.1975C5.2976 29.499 5.70645 29.6683 6.13277 29.6683Z" fill="#285A43" stroke="#285A43"/>
<path d="M31.7278 9.38348C32.1542 9.38348 32.563 9.21412 32.8645 8.91267C33.1659 8.61123 33.3353 8.20237 33.3353 7.77606V2.46582C33.3353 2.0395 33.1659 1.63065 32.8645 1.3292C32.563 1.02775 32.1542 0.858398 31.7278 0.858398C31.3015 0.858398 30.8927 1.02775 30.5912 1.3292L30.9448 1.68275L30.5912 1.3292C30.2898 1.63065 30.1204 2.0395 30.1204 2.46582V7.77606C30.1204 8.20237 30.2898 8.61123 30.5912 8.91267C30.8927 9.21412 31.3015 9.38348 31.7278 9.38348Z" fill="#285A43" stroke="#285A43"/>
<path d="M17.4003 36.7143L1.1481 48.8026C0.946982 48.9522 0.78364 49.1467 0.671111 49.3707C0.558576 49.5946 0.499977 49.8418 0.499985 50.0924V95.5342C0.499985 95.9605 0.669334 96.3693 0.97078 96.6708L0.970787 96.6708C1.27224 96.9722 1.68109 97.1416 2.10741 97.1416H61.3483C61.7746 97.1416 62.1834 96.9722 62.4849 96.6708C62.7863 96.3693 62.9557 95.9605 62.9557 95.5342V50.0924C62.9557 49.8418 62.8971 49.5946 62.7845 49.3707C62.672 49.1467 62.5087 48.9522 62.3076 48.8026L46.0554 36.7143C47.5289 34.2785 48.3585 31.5047 48.4619 28.6545C48.571 25.6484 47.8684 22.6685 46.4278 20.0278C44.9872 17.3871 42.8618 15.1832 40.2751 13.6478C37.6885 12.1124 34.7359 11.3021 31.7278 11.3021C28.7198 11.3021 25.7672 12.1124 23.1805 13.6478C20.5938 15.1832 18.4685 17.3871 17.0279 20.0278C15.5873 22.6685 14.8847 25.6484 14.9938 28.6545C15.0972 31.5047 15.9268 34.2785 17.4003 36.7143ZM19.9914 34.787C18.8151 32.7442 18.1947 30.425 18.1975 28.0615V28.0606C18.1963 25.9635 18.6825 23.8949 19.6178 22.018C20.5532 20.1411 21.912 18.5072 23.587 17.2455C25.262 15.9838 27.2073 15.1286 29.2695 14.7476C31.3317 14.3666 33.4541 14.4702 35.4694 15.0501C37.4847 15.63 39.3376 16.6704 40.8818 18.0892C42.4261 19.508 43.6194 21.2664 44.3675 23.2254C45.1157 25.1845 45.3983 27.2906 45.1929 29.3776C45.0053 31.2846 44.4149 33.1279 43.4633 34.7864L32.687 26.7711L32.687 26.7711C32.4097 26.5648 32.0733 26.4534 31.7277 26.4534C31.3822 26.4534 31.0458 26.5648 30.7685 26.7711L30.7685 26.7711L19.9914 34.787ZM59.7407 93.9268H3.71485V50.9001L31.7278 30.0642L59.7408 50.9001L59.7407 93.9268Z" fill="#285A43" stroke="#285A43"/>
<path d="M18.7333 57.2183H18.7328H17.7405C17.3142 57.2183 16.9053 57.3877 16.6039 57.6891C16.3024 57.9906 16.1331 58.3994 16.1331 58.8257L16.1331 59.8181L16.1331 59.8186C16.1377 63.669 17.6614 67.3621 20.3731 70.0956C22.9683 72.7116 26.451 74.2465 30.1204 74.4046V81.5451C25.4828 81.8148 20.9895 83.2734 17.0745 85.7841L17.0742 85.7843C16.7155 86.0147 16.4631 86.3782 16.3724 86.7947C16.2817 87.2113 16.3601 87.6468 16.5906 88.0055C16.821 88.3642 17.1844 88.6167 17.601 88.7074C18.0173 88.798 18.4525 88.7197 18.8111 88.4896C22.6671 86.0213 27.1496 84.7095 31.7279 84.7095C36.3053 84.7095 40.7869 86.0208 44.6424 88.4881C44.8193 88.6038 45.0174 88.6835 45.2251 88.7226C45.434 88.7619 45.6485 88.7594 45.8563 88.7152C46.0642 88.6711 46.2612 88.5861 46.436 88.4653C46.6108 88.3446 46.76 88.1903 46.8748 88.0115C46.9896 87.8327 47.0679 87.633 47.105 87.4238C47.1421 87.2145 47.1374 87 47.0911 86.7927C47.0448 86.5853 46.9578 86.3892 46.8353 86.2156C46.7132 86.0427 46.5582 85.8957 46.3791 85.7829C42.4647 83.2728 37.9721 81.8147 33.3353 81.5451V74.4046C37.0046 74.2465 40.4873 72.7115 43.0825 70.0955C45.7942 67.362 47.3179 63.669 47.3225 59.8186V59.8181V58.8257C47.3225 58.3994 47.1531 57.9906 46.8517 57.6891C46.5502 57.3877 46.1414 57.2183 45.715 57.2183L44.7227 57.2183L44.7222 57.2183C41.8504 57.2213 39.0431 58.0697 36.6504 59.6578C34.5606 61.0448 32.8679 62.9424 31.7278 65.1629C30.5878 62.9424 28.895 61.0448 26.8053 59.6578C24.4125 58.0697 21.6051 57.2213 18.7333 57.2183ZM22.6869 67.8666C20.7027 65.8824 19.5243 63.2409 19.3661 60.4514C22.1556 60.6096 24.7971 61.7879 26.7814 63.7721C28.7656 65.7564 29.9439 68.3979 30.1022 71.1874C27.3127 71.0292 24.6711 69.8509 22.6869 67.8666ZM36.6742 63.7721C38.6585 61.7879 41.3 60.6096 44.0895 60.4514C43.9312 63.2409 42.7529 65.8824 40.7686 67.8666C38.7844 69.8509 36.1428 71.0292 33.3533 71.1874C33.5116 68.3979 34.6899 65.7564 36.6742 63.7721Z" fill="#285A43" stroke="#285A43"/>
</svg>
